#define 4e3d5c2a98d04a38d4fe109f9291bb723zkEhMKnGqJWlLQJ_width 112
#define 4e3d5c2a98d04a38d4fe109f9291bb723zkEhMKnGqJWlLQJ_height 103
static char 4e3d5c2a98d04a38d4fe109f9291bb723zkEhMKnGqJWlLQJ_bits[] = {
  0x00, 0x00, 0x00, 0x00, 0x00, 0x00, 0x00, 0x34, 0x11, 0x00, 0x00, 0xA2, 
  0x00, 0x00, 0x00, 0x00, 0x00, 0x00, 0x00, 0x80, 0x84, 0xBB, 0x3F, 0x00, 
  0x00, 0x9D, 0x1F, 0x00, 0x00, 0x00, 0x00, 0x00, 0x00, 0x0A, 0x62, 0x38, 
  0xC4, 0x00, 0xA0, 0xF7, 0x3F, 0x00, 0x00, 0x00, 0x00, 0x00, 0x00, 0x63, 
  0x38, 0x3C, 0x9C, 0x00, 0xF0, 0xF7, 0x7F, 0x00, 0x00, 0x00, 0x00, 0x00, 
  0x00, 0x02, 0x3A, 0x7C, 0x90, 0x06, 0xF8, 0x00, 0x00, 0x00, 0x00, 0x00, 
  0x00, 0x00, 0x40, 0xBA, 0x18, 0x3C, 0x70, 0x04, 0x00, 0x00, 0x00, 0x00, 
  0x00, 0x00, 0x00, 0x00, 0x10, 0x04, 0x13, 0x6C, 0x40, 0x0B, 0x00, 0x00, 
  0x00, 0x00, 0x00, 0x00, 0x00, 0x00, 0x4C, 0x61, 0x18, 0x24, 0x80, 0x08, 
  0x00, 0x00, 0x00, 0x00, 0x00, 0x00, 0x00, 0x00, 0xC0, 0x18, 0x01, 0x6C, 
  0x00, 0x09, 0x00, 0x00, 0x00, 0x00, 0x00, 0x00, 0x00, 0x80, 0x24, 0x82, 
  0x1C, 0x2C, 0x00, 0xA3, 0x00, 0x80, 0x00, 0x00, 0x00, 0x00, 0x00, 0xC0, 
  0x42, 0x28, 0x16, 0x3C, 0x00, 0xDE, 0x00, 0xE0, 0x00, 0x00, 0x00, 0x00, 
  0x00, 0x00, 0x18, 0xA3, 0x04, 0x3C, 0x00, 0x94, 0x01, 0xE0, 0x00, 0x00, 
  0x00, 0x00, 0x00, 0x90, 0x66, 0x10, 0x1F, 0x7E, 0x00, 0xC0, 0x03, 0xE0, 
  0x01, 0x00, 0x00, 0x00, 0x00, 0x10, 0x00, 0x55, 0x3C, 0x3E, 0x00, 0x14, 
  0x03, 0xE0, 0x01, 0x00, 0x00, 0x00, 0x00, 0x42, 0xD3, 0x20, 0x38, 0x3C, 
  0x00, 0x1C, 0x06, 0xE0, 0x01, 0x00, 0x00, 0x00, 0x00, 0x19, 0x08, 0x86, 
  0x73, 0x1C, 0x00, 0x4C, 0x05, 0xE0, 0x01, 0x00, 0x00, 0x00, 0x00, 0x82, 
  0x51, 0x08, 0xFC, 0x09, 0x00, 0xC0, 0x06, 0xE0, 0x01, 0x00, 0x00, 0x00, 
  0x00, 0xAA, 0x0C, 0xB3, 0xFE, 0x03, 0x00, 0x18, 0x0C, 0xE0, 0x01, 0x00, 
  0x00, 0x00, 0x90, 0x48, 0xA0, 0x00, 0xF5, 0x0E, 0x00, 0x58, 0x09, 0x60, 
  0x01, 0x00, 0x00, 0x00, 0x20, 0x11, 0x8A, 0x65, 0xD4, 0x0F, 0x00, 0x0C, 
  0x00, 0x20, 0x01, 0x00, 0x00, 0x00, 0x54, 0x12, 0x44, 0x18, 0x86, 0xEF, 
  0x01, 0x8C, 0x33, 0x70, 0x00, 0x00, 0x00, 0x80, 0x4B, 0xC8, 0x15, 0x82, 
  0x20, 0xBF, 0x07, 0xA4, 0x78, 0xF0, 0x01, 0x00, 0x00, 0x40, 0x10, 0x2A, 
  0x11, 0x28, 0xCD, 0xFF, 0x0C, 0x42, 0x42, 0xE0, 0x01, 0x00, 0x00, 0x8B, 
  0x85, 0x82, 0x44, 0xA3, 0x10, 0xFC, 0xF7, 0x1B, 0x18, 0xE0, 0x01, 0x00, 
  0xFE, 0x18, 0x22, 0x18, 0x8A, 0x10, 0xA6, 0xFE, 0xFF, 0x8B, 0xC1, 0x03, 
  0x00, 0x0E, 0x20, 0x42, 0x88, 0x41, 0x20, 0x55, 0x00, 0x70, 0xFF, 0x33, 
  0x14, 0x03, 0x00, 0x08, 0x42, 0x24, 0xA8, 0x14, 0x8C, 0x21, 0x5A, 0xE3, 
  0xFF, 0x45, 0xA3, 0x02, 0x80, 0x09, 0x18, 0xC3, 0x22, 0xC5, 0x31, 0x84, 
  0x11, 0xC8, 0xFF, 0x11, 0x08, 0x06, 0xC0, 0x02, 0x65, 0x08, 0x51, 0x08, 
  0x05, 0x8C, 0xC3, 0x31, 0x1F, 0x22, 0x31, 0x0F, 0x60, 0x1E, 0x00, 0x5A, 
  0x05, 0xAA, 0xA0, 0x21, 0x2F, 0xC4, 0x47, 0xA8, 0x4C, 0x0E, 0x98, 0x0E, 
  0xD3, 0x00, 0x30, 0x00, 0x8A, 0x54, 0x5C, 0xEE, 0xA1, 0x8A, 0x20, 0xFD, 
  0xFE, 0x0F, 0x08, 0x65, 0x8A, 0x65, 0x28, 0x11, 0xFB, 0xFF, 0x8A, 0x20, 
  0x8A, 0xFE, 0xFF, 0x1F, 0xA6, 0x66, 0x8A, 0x65, 0x41, 0x82, 0xF8, 0x3F, 
  0x82, 0x18, 0x86, 0x31, 0xFE, 0x0F, 0x00, 0x00, 0x30, 0x00, 0x54, 0xAA, 
  0x42, 0x8A, 0xAA, 0x82, 0x60, 0xF4, 0x02, 0x07, 0x55, 0x5A, 0x05, 0x9A, 
  0x13, 0x48, 0x28, 0xA4, 0x48, 0x28, 0xDD, 0x6B, 0x81, 0x27, 0x10, 0x08, 
  0x51, 0x08, 0x48, 0x12, 0xA3, 0x01, 0x12, 0xA3, 0x80, 0xD3, 0xE5, 0x21, 
  0xA3, 0xC3, 0x20, 0xC5, 0x88, 0x12, 0x10, 0x31, 0x11, 0x10, 0x8A, 0xDF, 
  0xFF, 0x28, 0x28, 0x24, 0x8A, 0x14, 0x12, 0x48, 0x55, 0x4C, 0x48, 0x55, 
  0x10, 0x0E, 0xFF, 0x21, 0x82, 0x02, 0xA8, 0x41, 0x45, 0xAA, 0x20, 0x20, 
  0xAA, 0x20, 0x45, 0x9C, 0x5E, 0x05, 0xF8, 0x5F, 0x22, 0x18, 0x51, 0x82, 
  0x86, 0x8A, 0x82, 0x86, 0x51, 0x3D, 0x10, 0x04, 0xFD, 0xFF, 0x41, 0x82, 
  0x20, 0x08, 0x10, 0x86, 0x0C, 0x61, 0x22, 0xF8, 0x31, 0x2C, 0x9E, 0xF4, 
  0x55, 0x2A, 0x8A, 0x51, 0xCB, 0x20, 0x51, 0x04, 0x88, 0x61, 0x89, 0x01, 
  0x97, 0xD9, 0x1F, 0xC8, 0xA8, 0x15, 0x00, 0x4D, 0x05, 0xAA, 0xA8, 0xC4, 
  0x20, 0x14, 0x0B, 0x20, 0x4F, 0x12, 0x22, 0xC4, 0xA6, 0x50, 0x60, 0x88, 
  0x22, 0xD5, 0x85, 0x21, 0x25, 0x90, 0xFC, 0x01, 0x11, 0x08, 0x18, 0x86, 
  0x0C, 0x44, 0x51, 0x88, 0x55, 0x0C, 0x01, 0x36, 0xF5, 0xD8, 0x55, 0xAA, 
  0x41, 0x20, 0xB2, 0x15, 0x05, 0xAA, 0x43, 0x02, 0x43, 0x70, 0xC0, 0x0B, 
  0x20, 0x04, 0x14, 0x8A, 0x04, 0x51, 0x30, 0x00, 0x2B, 0x24, 0x27, 0xE4, 
  0x29, 0x67, 0x8A, 0x61, 0xC5, 0x30, 0x61, 0x04, 0x8A, 0x65, 0x87, 0x21, 
  0x05, 0xD0, 0x0B, 0x1E, 0x10, 0x51, 0x18, 0x86, 0x14, 0xC3, 0x51, 0x08, 
  0x1F, 0x31, 0x63, 0x42, 0x43, 0x7E, 0x4D, 0x0C, 0x82, 0x10, 0x51, 0x24, 
  0x0C, 0xB3, 0x4E, 0x14, 0x09, 0x08, 0x56, 0x72, 0xA0, 0xA0, 0x28, 0x4B, 
  0x05, 0x42, 0xA0, 0x04, 0x5C, 0x33, 0x43, 0x22, 0x0E, 0xE0, 0x86, 0x8A, 
  0xA3, 0x50, 0xA0, 0x18, 0x8A, 0x61, 0x9D, 0x78, 0x47, 0x82, 0x1C, 0xD0, 
  0x13, 0x04, 0x10, 0x86, 0x8C, 0x66, 0x04, 0x18, 0xF8, 0xFF, 0x1E, 0x18, 
  0x78, 0x82, 0x47, 0x51, 0x59, 0x20, 0x32, 0x00, 0x51, 0x82, 0xFA, 0xFF, 
  0xBD, 0x02, 0xF6, 0x18, 0x9E, 0x15, 0x00, 0x85, 0x04, 0xCB, 0x15, 0x28, 
  0x30, 0x1B, 0xFC, 0x91, 0x60, 0x42, 0x3C, 0x44, 0xA6, 0x30, 0x51, 0x10, 
  0x44, 0xA3, 0x45, 0x84, 0xE1, 0x93, 0xC9, 0x40, 0xF5, 0xA1, 0x8A, 0x51, 
  0x61, 0x08, 0x8A, 0x10, 0x11, 0x46, 0x4C, 0x03, 0xD0, 0x1B, 0xC0, 0x89, 
  0x20, 0x45, 0x04, 0xD3, 0x20, 0x55, 0x4C, 0x10, 0x60, 0x1E, 0x40, 0x03, 
  0xC0, 0x1B, 0x55, 0x20, 0xB2, 0x00, 0x8C, 0x21, 0xA0, 0x5B, 0x0A, 0x8E, 
  0x09, 0x5F, 0x09, 0x5F, 0x11, 0x8A, 0x0A, 0x65, 0x31, 0x84, 0x86, 0x40, 
  0xC4, 0x1C, 0xA2, 0x7A, 0x55, 0xFD, 0x29, 0x4A, 0x61, 0x18, 0x25, 0x8C, 
  0x04, 0x86, 0x25, 0xBB, 0x00, 0xF8, 0x00, 0xF0, 0xBF, 0x50, 0x04, 0x82, 
  0x80, 0x21, 0x51, 0x20, 0x41, 0x74, 0x02, 0x80, 0x93, 0x80, 0xFE, 0x11, 
  0x51, 0x28, 0x8A, 0x54, 0x15, 0x45, 0x14, 0xF2, 0xA4, 0x24, 0x0F, 0x09, 
  0xE2, 0x5F, 0x0C, 0xA3, 0x28, 0x11, 0x44, 0x31, 0x8A, 0x94, 0x03, 0x00, 
  0xBC, 0x22, 0x25, 0xFE, 0x0A, 0x14, 0xC3, 0x30, 0x8A, 0x10, 0x20, 0x51, 
  0x9F, 0x9A, 0xF9, 0x00, 0x00, 0xE1, 0xA9, 0x51, 0x14, 0x45, 0xA2, 0x4A, 
  0x8C, 0x05, 0x8C, 0x02, 0xF0, 0x07, 0x41, 0x00, 0x7F, 0x08, 0x52, 0x20, 
  0x08, 0x28, 0x31, 0x60, 0x7B, 0x90, 0x02, 0x5F, 0x24, 0x92, 0xFE, 0x63, 
  0x08, 0x86, 0x51, 0x62, 0x05, 0x8C, 0xF0, 0x48, 0x09, 0xF9, 0x04, 0xA9, 
  0xB4, 0x4F, 0x8A, 0x40, 0x62, 0x31, 0xA0, 0x32, 0xDA, 0x03, 0x40, 0xF4, 
  0x97, 0x00, 0x01, 0x3E, 0xA0, 0x5D, 0x08, 0x05, 0x8A, 0x04, 0x00, 0xA7, 
  0x58, 0xA5, 0x2F, 0x00, 0x64, 0xF8, 0x49, 0x10, 0xAA, 0x14, 0x28, 0x61, 
  0x66, 0x1E, 0x01, 0x00, 0xFC, 0xA5, 0x00, 0xE1, 0x17, 0x86, 0xE2, 0x39, 
  0xC5, 0x20, 0x51, 0x7E, 0x04, 0x00, 0xE0, 0x3F, 0x01, 0xA2, 0xFF, 0xFF, 
  0xFF, 0x3F, 0x24, 0x8A, 0x0C, 0xE0, 0xFB, 0x2D, 0x86, 0xFF, 0x95, 0x04, 
  0xFE, 0xFF, 0xBF, 0x9F, 0x42, 0xA8, 0xA2, 0xD3, 0xFF, 0x9F, 0x20, 0xE4, 
  0x3F, 0x90, 0x90, 0xEB, 0x12, 0x81, 0x18, 0x22, 0x88, 0x48, 0xDE, 0x3F, 
  0x42, 0x24, 0xFF, 0x07, 0x08, 0x00, 0x4C, 0x88, 0xA6, 0x11, 0x44, 0x8A, 
  0x12, 0xF4, 0x49, 0x05, 0xD0, 0x7F, 0x41, 0x50, 0x7F, 0xC5, 0x00, 0x55, 
  0x15, 0x10, 0xCA, 0xD5, 0x0B, 0x90, 0x5A, 0xFA, 0xFF, 0xFF, 0xFF, 0x5F, 
  0xCB, 0x20, 0x51, 0x45, 0x08, 0x52, 0x5F, 0x40, 0x42, 0x9A, 0xFF, 0xFF, 
  0xD5, 0x0F, 0x10, 0x8A, 0x04, 0x51, 0x62, 0x08, 0x7C, 0x05, 0x00, 0x50, 
  0x69, 0x47, 0x20, 0x0C, 0x68, 0x86, 0x48, 0x31, 0x10, 0xC5, 0xEA, 0x8B, 
  0x08, 0x90, 0x00, 0x80, 0x00, 0x04, 0x0B, 0x20, 0x11, 0x45, 0x55, 0x14, 
  0xB0, 0xFF, 0x5F, 0x02, 0x99, 0x1A, 0x59, 0x01, 0x5F, 0x55, 0x54, 0x20, 
  0x01, 0x41, 0x85, 0xF9, 0xFF, 0x4F, 0x82, 0x02, 0x40, 0x04, 0xFF, 0x10, 
  0x05, 0x86, 0xA4, 0x18, 0x11, 0xAA, 0xFB, 0xFF, 0x3F, 0x90, 0x09, 0x00, 
  0xFF, 0x57, 0x90, 0x40, 0x8C, 0xA6, 0xC2, 0x18, 0xC2, 0xFF, 0xFF, 0x2F, 
  0x02, 0x02, 0xFF, 0xBF, 0x9E, 0x5D, 0x31, 0x00, 0x18, 0x41, 0x18, 0x40, 
  0xE7, 0x7F, 0x40, 0x02, 0xFF, 0xFF, 0xEF, 0x10, 0x44, 0xCD, 0x4A, 0x14, 
  0x42, 0x24, 0xC2, 0xF3, 0x3B, 0x00, 0xFF, 0xFF, 0xFF, 0x47, 0x11, 0x10, 
  0x10, 0xC5, 0x18, 0xA5, 0x18, 0xE4, 0x3F, 0x00, 0xFF, 0xFF, 0xFF, 0x7F, 
  0x4D, 0x68, 0x51, 0x0C, 0x45, 0x10, 0x86, 0x31, 0x0F, 0x00, 0xFF, 0xFF, 
  0xFF, 0xBF, 0x23, 0x02, 0x45, 0xA2, 0x50, 0x55, 0x20, 0x85, 0x06, 0x00, 
  0xEF, 0xEF, 0xFF, 0xFF, 0xFF, 0xA1, 0x10, 0x04, 0x13, 0x21, 0x55, 0x80, 
  0x00, 0x00, 0xFF, 0xFF, 0xFF, 0xFF, 0xFF, 0x8F, 0x8A, 0x61, 0x48, 0x8C, 
  0x10, 0xF6, 0x03, 0x00, 0xFF, 0xDF, 0xFD, 0xFF, 0xFF, 0xFF, 0x89, 0x61, 
  0x7E, 0x1A, 0x49, 0x02, 0x00, 0x00, 0xF7, 0xF7, 0xFF, 0xFF, 0xFF, 0xFE, 
  0x7F, 0xFF, 0xFF, 0x7C, 0xCF, 0x03, 0x00, 0x00, 0xFF, 0xFF, 0xFF, 0xFF, 
  0xFF, 0x87, 0xFF, 0xFF, 0x3D, 0x00, 0x00, 0x00, 0x00, 0x00, 0xFF, 0xFF, 
  0xFF, 0xFF, 0xFF, 0xFF, 0xFE, 0xFF, 0x1F, 0x00, 0x00, 0x00, 0x00, 0x00, 
  0xFF, 0xFF, 0xF7, 0xF7, 0xF7, 0xFF, 0xFF, 0xFF, 0x3F, 0x00, 0x00, 0x00, 
  0x00, 0x00, 0xFF, 0xFF, 0xFF, 0xFF, 0xFF, 0xFF, 0xFF, 0xFF, 0x5F, 0x00, 
  0x00, 0x00, 0x00, 0x00, 0xFF, 0xFE, 0xFF, 0xFF, 0xFF, 0xFF, 0xFF, 0xFF, 
  0xFF, 0x00, 0x00, 0x00, 0x00, 0x00, 0xF7, 0x7F, 0xFF, 0xFF, 0x7F, 0xFE, 
  0xFF, 0xFF, 0xFF, 0x00, 0x00, 0x00, 0x00, 0x00, 0xBB, 0xF7, 0xBF, 0x7B, 
  0xFB, 0xFF, 0xBB, 0xBF, 0xFF, 0x00, 0x00, 0x00, 0x00, 0x00, 0x77, 0xF7, 
  0x7C, 0x77, 0x77, 0xF7, 0x7D, 0xFF, 0xFF, 0x01, 0x00, 0x00, 0x00, 0x00, 
  0x00, 0x00, 0x00, 0x00, 0x00, 0x00, 0x00, 0x00, 0x00, 0x00, 0x00, 0x00, 
  0x00, 0x00, };
